<svg version="1.2" baseProfile="tiny-ps" xmlns="http://www.w3.org/2000/svg" viewBox="0 0 733 155" width="733" height="155">
	<title>okike_logo_cut</title>
	<style>
		tspan { white-space:pre }
	</style>
	<path id="okike" fill="#ff6000" aria-label="okike"  d="M75.24 84.18L75.24 61.23Q88.67 61.96 99.65 67.82Q110.64 73.44 117.96 82.96Q125.53 92.23 129.68 104.69Q133.83 117.14 133.83 131.3Q133.83 145.46 129.44 157.91Q125.29 170.12 117.72 179.39Q110.15 188.43 99.17 194.04Q88.18 199.66 75.24 200.63L75.24 177.2Q87.45 174.51 95.01 161.81Q102.83 149.12 102.83 131.3Q102.83 122.26 100.87 114.45Q99.17 106.39 95.5 100.05Q91.84 93.7 86.71 89.55Q81.59 85.4 75.24 84.18ZM7.12 130.81Q7.12 116.65 11.27 104.44Q15.42 92.23 22.99 83.2Q30.81 73.92 41.55 68.31Q52.29 62.69 65.23 61.47L65.23 84.18Q53.02 86.86 45.7 99.56Q38.37 112.25 38.37 130.08Q38.37 139.11 40.08 147.17Q42.04 155.22 45.45 161.57Q48.87 167.92 53.75 172.07Q58.88 176.22 65.23 177.2L65.23 200.63Q51.8 199.66 41.06 194.04Q30.32 188.18 22.75 178.9Q15.18 169.63 11.03 157.18Q7.12 144.72 7.12 130.81ZM68.65 84.18L68.65 61.23Q82.08 61.96 93.06 67.82Q104.05 73.44 111.37 82.96Q118.94 92.23 123.09 104.69Q127.24 117.14 127.24 131.3Q127.24 145.46 122.85 157.91Q118.7 170.12 111.13 179.39Q103.56 188.43 92.57 194.04Q81.59 199.66 68.65 200.63L68.65 177.2Q80.85 174.51 88.42 161.81Q96.24 149.12 96.24 131.3Q96.24 122.26 94.28 114.45Q92.57 106.39 88.91 100.05Q85.25 93.7 80.12 89.55Q75 85.4 68.65 84.18ZM0.53 130.81Q0.53 116.65 4.68 104.44Q8.83 92.23 16.4 83.2Q24.21 73.92 34.96 68.31Q45.7 62.69 58.64 61.47L58.64 84.18Q46.43 86.86 39.11 99.56Q31.78 112.25 31.78 130.08Q31.78 139.11 33.49 147.17Q35.44 155.22 38.86 161.57Q42.28 167.92 47.16 172.07Q52.29 176.22 58.64 177.2L58.64 200.63Q45.21 199.66 34.47 194.04Q23.73 188.18 16.16 178.9Q8.59 169.63 4.44 157.18Q0.53 144.72 0.53 130.81ZM299.59 61.96L251.25 130.56L305.94 199.66L272.25 199.66L232.21 146.92L232.21 112.99L266.39 61.96L299.59 61.96ZM222.2 199.66L192.41 199.66L192.41 9.96L222.2 9.96L222.2 199.66ZM293 61.96L244.66 130.56L299.35 199.66L265.66 199.66L225.62 146.92L225.62 112.99L259.8 61.96L293 61.96ZM215.61 199.66L185.82 199.66L185.82 9.96L215.61 9.96L215.61 199.66ZM385.76 61.96L385.76 199.66L355.97 199.66L355.97 61.96L385.76 61.96ZM388.44 18.02Q388.44 25.34 383.32 30.47Q378.19 35.35 370.87 35.35Q363.54 35.35 358.42 30.22Q353.53 25.1 353.53 18.02Q353.53 10.69 358.66 5.56Q363.79 0.44 370.87 0.44Q378.19 0.44 383.32 5.56Q388.44 10.69 388.44 18.02ZM379.17 61.96L379.17 199.66L349.38 199.66L349.38 61.96L379.17 61.96ZM381.85 18.02Q381.85 25.34 376.73 30.47Q371.6 35.35 364.27 35.35Q356.95 35.35 351.82 30.22Q346.94 25.1 346.94 18.02Q346.94 10.69 352.07 5.56Q357.19 0.44 364.27 0.44Q371.6 0.44 376.73 5.56Q381.85 10.69 381.85 18.02ZM554.69 61.96L506.35 130.56L561.04 199.66L527.35 199.66L487.31 146.92L487.31 112.99L521.49 61.96L554.69 61.96ZM477.3 199.66L447.51 199.66L447.51 9.96L477.3 9.96L477.3 199.66ZM548.1 61.96L499.76 130.56L554.45 199.66L520.75 199.66L480.72 146.92L480.72 112.99L514.9 61.96L548.1 61.96ZM470.71 199.66L440.92 199.66L440.92 9.96L470.71 9.96L470.71 199.66ZM675.28 83.69L675.28 60.74Q688.47 61.96 698.96 67.82Q709.71 73.68 717.27 82.96Q724.84 92.23 728.75 104.2Q732.9 116.16 732.9 129.1Q732.9 134.96 732.17 140.82L648.43 140.82L648.43 119.33L704.82 119.33Q704.82 112.99 702.63 107.13Q700.67 101.27 696.52 96.38Q692.62 91.26 687.25 87.84Q681.87 84.42 675.28 83.69ZM674.31 176.71Q676.99 176.71 680.9 176.22Q685.05 175.49 689.44 174.02Q694.08 172.31 698.48 169.87Q703.11 167.43 706.53 164.01L717.27 180.37Q709.22 190.38 698.48 195.51Q687.73 200.63 671.13 200.63Q657.7 200.63 645.99 195.26Q634.27 189.65 625.97 180.13Q617.67 170.6 612.78 157.91Q607.9 145.21 607.9 130.56Q607.9 116.65 612.29 104.2Q616.93 91.75 624.75 82.47Q632.56 72.95 642.81 67.09Q653.31 61.23 665.27 60.5L665.27 83.93Q656.24 85.64 650.38 91.26Q644.52 96.87 641.1 104.2Q637.93 111.28 636.46 118.85Q635.24 126.41 635.24 131.79Q635.24 141.31 637.44 149.61Q639.88 157.66 644.76 163.77Q649.65 169.63 656.73 173.29Q664.05 176.71 674.31 176.71ZM668.69 83.69L668.69 60.74Q681.87 61.96 692.37 67.82Q703.11 73.68 710.68 82.96Q718.25 92.23 722.16 104.2Q726.31 116.16 726.31 129.1Q726.31 134.96 725.58 140.82L641.83 140.82L641.83 119.33L698.23 119.33Q698.23 112.99 696.03 107.13Q694.08 101.27 689.93 96.38Q686.02 91.26 680.65 87.84Q675.28 84.42 668.69 83.69ZM667.71 176.71Q670.4 176.71 674.31 176.22Q678.46 175.49 682.85 174.02Q687.49 172.31 691.88 169.87Q696.52 167.43 699.94 164.01L710.68 180.37Q702.63 190.38 691.88 195.51Q681.14 200.63 664.54 200.63Q651.11 200.63 639.39 195.26Q627.67 189.65 619.37 180.13Q611.07 170.6 606.19 157.91Q601.31 145.21 601.31 130.56Q601.31 116.65 605.7 104.2Q610.34 91.75 618.15 82.47Q625.97 72.95 636.22 67.09Q646.72 61.23 658.68 60.5L658.68 83.93Q649.65 85.64 643.79 91.26Q637.93 96.87 634.51 104.2Q631.34 111.28 629.87 118.85Q628.65 126.41 628.65 131.79Q628.65 141.31 630.85 149.61Q633.29 157.66 638.17 163.77Q643.06 169.63 650.14 173.29Q657.46 176.71 667.71 176.71Z" />
</svg>