<svg version="1.2" baseProfile="tiny-ps" xmlns="http://www.w3.org/2000/svg" viewBox="0 0 155 733" width="155" height="733">
	<title>okike_logo_cut_inverse</title>
	<style>
		tspan { white-space:pre }
	</style>
	<path id="okike" fill="#ffffff" aria-label="okike"  d="M83.67 656.76L60.72 656.76Q61.45 643.33 67.31 632.35Q72.93 621.36 82.45 614.04Q91.73 606.47 104.18 602.32Q116.63 598.17 130.79 598.17Q144.95 598.17 157.4 602.56Q169.61 606.71 178.88 614.28Q187.92 621.85 193.53 632.83Q199.15 643.82 200.13 656.76L176.69 656.76Q174 644.55 161.31 636.99Q148.61 629.17 130.79 629.17Q121.76 629.17 113.94 631.13Q105.89 632.83 99.54 636.5Q93.19 640.16 89.04 645.29Q84.89 650.41 83.67 656.76ZM130.3 724.88Q116.14 724.88 103.93 720.73Q91.73 716.58 82.69 709.01Q73.42 701.19 67.8 690.45Q62.19 679.71 60.96 666.77L83.67 666.77Q86.36 678.98 99.05 686.3Q111.75 693.63 129.57 693.63Q138.6 693.63 146.66 691.92Q154.71 689.96 161.06 686.55Q167.41 683.13 171.56 678.25Q175.71 673.12 176.69 666.77L200.13 666.77Q199.15 680.2 193.53 690.94Q187.67 701.68 178.4 709.25Q169.12 716.82 156.67 720.97Q144.22 724.88 130.3 724.88ZM83.67 663.35L60.72 663.35Q61.45 649.92 67.31 638.94Q72.93 627.95 82.45 620.63Q91.73 613.06 104.18 608.91Q116.63 604.76 130.79 604.76Q144.95 604.76 157.4 609.15Q169.61 613.3 178.88 620.87Q187.92 628.44 193.53 639.43Q199.15 650.41 200.13 663.35L176.69 663.35Q174 651.15 161.31 643.58Q148.61 635.76 130.79 635.76Q121.76 635.76 113.94 637.72Q105.89 639.43 99.54 643.09Q93.19 646.75 89.04 651.88Q84.89 657 83.67 663.35ZM130.3 731.47Q116.14 731.47 103.93 727.32Q91.73 723.17 82.69 715.6Q73.42 707.79 67.8 697.04Q62.19 686.3 60.96 673.36L83.67 673.36Q86.36 685.57 99.05 692.89Q111.75 700.22 129.57 700.22Q138.6 700.22 146.66 698.51Q154.71 696.56 161.06 693.14Q167.41 689.72 171.56 684.84Q175.71 679.71 176.69 673.36L200.13 673.36Q199.15 686.79 193.53 697.53Q187.67 708.27 178.4 715.84Q169.12 723.41 156.67 727.56Q144.22 731.47 130.3 731.47ZM61.45 432.41L130.06 480.75L199.15 426.06L199.15 459.75L146.41 499.79L112.48 499.79L61.45 465.61L61.45 432.41ZM199.15 509.8L199.15 539.59L9.45 539.59L9.45 509.8L199.15 509.8ZM61.45 439L130.06 487.34L199.15 432.65L199.15 466.34L146.41 506.38L112.48 506.38L61.45 472.2L61.45 439ZM199.15 516.39L199.15 546.18L9.45 546.18L9.45 516.39L199.15 516.39ZM61.45 346.24L199.15 346.24L199.15 376.03L61.45 376.03L61.45 346.24ZM17.51 343.56Q24.83 343.56 29.96 348.68Q34.84 353.81 34.84 361.13Q34.84 368.46 29.71 373.58Q24.59 378.47 17.51 378.47Q10.18 378.47 5.06 373.34Q-0.07 368.21 -0.07 361.13Q-0.07 353.81 5.06 348.68Q10.18 343.56 17.51 343.56ZM61.45 352.83L199.15 352.83L199.15 382.62L61.45 382.62L61.45 352.83ZM17.51 350.15Q24.83 350.15 29.96 355.27Q34.84 360.4 34.84 367.73Q34.84 375.05 29.71 380.18Q24.59 385.06 17.51 385.06Q10.18 385.06 5.06 379.93Q-0.07 374.81 -0.07 367.73Q-0.07 360.4 5.06 355.27Q10.18 350.15 17.51 350.15ZM61.45 177.31L130.06 225.65L199.15 170.96L199.15 204.65L146.41 244.69L112.48 244.69L61.45 210.51L61.45 177.31ZM199.15 254.7L199.15 284.49L9.45 284.49L9.45 254.7L199.15 254.7ZM61.45 183.9L130.06 232.24L199.15 177.55L199.15 211.25L146.41 251.28L112.48 251.28L61.45 217.1L61.45 183.9ZM199.15 261.29L199.15 291.08L9.45 291.08L9.45 261.29L199.15 261.29ZM83.18 56.72L60.23 56.72Q61.45 43.53 67.31 33.04Q73.17 22.29 82.45 14.73Q91.73 7.16 103.69 3.25Q115.65 -0.9 128.59 -0.9Q134.45 -0.9 140.31 -0.17L140.31 83.57L118.83 83.57L118.83 27.18Q112.48 27.18 106.62 29.37Q100.76 31.33 95.88 35.48Q90.75 39.38 87.33 44.75Q83.91 50.13 83.18 56.72ZM176.2 57.69Q176.2 55.01 175.71 51.1Q174.98 46.95 173.51 42.56Q171.8 37.92 169.36 33.52Q166.92 28.89 163.5 25.47L179.86 14.73Q189.87 22.78 195 33.52Q200.12 44.27 200.12 60.87Q200.12 74.3 194.75 86.01Q189.14 97.73 179.62 106.03Q170.1 114.33 157.4 119.22Q144.71 124.1 130.06 124.1Q116.14 124.1 103.69 119.71Q91.24 115.07 81.96 107.25Q72.44 99.44 66.58 89.19Q60.72 78.69 59.99 66.73L83.43 66.73Q85.13 75.76 90.75 81.62Q96.37 87.48 103.69 90.9Q110.77 94.07 118.34 95.54Q125.91 96.76 131.28 96.76Q140.8 96.76 149.1 94.56Q157.16 92.12 163.26 87.24Q169.12 82.35 172.78 75.27Q176.2 67.95 176.2 57.69ZM83.18 63.31L60.23 63.31Q61.45 50.13 67.31 39.63Q73.17 28.89 82.45 21.32Q91.73 13.75 103.69 9.84Q115.65 5.69 128.59 5.69Q134.45 5.69 140.31 6.42L140.31 90.17L118.83 90.17L118.83 33.77Q112.48 33.77 106.62 35.97Q100.76 37.92 95.88 42.07Q90.75 45.98 87.33 51.35Q83.91 56.72 83.18 63.31ZM176.2 64.29Q176.2 61.6 175.71 57.69Q174.98 53.54 173.51 49.15Q171.8 44.51 169.36 40.12Q166.92 35.48 163.5 32.06L179.86 21.32Q189.87 29.37 195 40.12Q200.12 50.86 200.12 67.46Q200.12 80.89 194.75 92.61Q189.14 104.33 179.62 112.63Q170.1 120.93 157.4 125.81Q144.71 130.69 130.06 130.69Q116.14 130.69 103.69 126.3Q91.24 121.66 81.96 113.85Q72.44 106.03 66.58 95.78Q60.72 85.28 59.99 73.32L83.43 73.32Q85.13 82.35 90.75 88.21Q96.37 94.07 103.69 97.49Q110.77 100.66 118.34 102.13Q125.91 103.35 131.28 103.35Q140.8 103.35 149.1 101.15Q157.16 98.71 163.26 93.83Q169.12 88.94 172.78 81.86Q176.2 74.54 176.2 64.29Z" />
</svg>